<svg id="visual" viewBox="0 0 1824 600" width="1824" height="600" xmlns="http://www.w3.org/2000/svg" xmlns:xlink="http://www.w3.org/1999/xlink" version="1.1"><path d="M0 564L76 564.3C152 564.7 304 565.3 456 567C608 568.7 760 571.3 912 572.5C1064 573.7 1216 573.3 1368 573.3C1520 573.3 1672 573.7 1748 573.8L1824 574L1824 601L1748 601C1672 601 1520 601 1368 601C1216 601 1064 601 912 601C760 601 608 601 456 601C304 601 152 601 76 601L0 601Z" fill="#0066FF" stroke-linecap="round" stroke-linejoin="miter"></path></svg>