<svg width="7142" height="1362" viewBox="0 0 7142 1362" fill="none" xmlns="http://www.w3.org/2000/svg">
<rect y="367" width="219.124" height="215.7" fill="#0055FE"/>
<rect x="246.514" y="367" width="219.124" height="215.7" fill="#0055FE"/>
<rect x="496.453" y="367" width="222.548" height="215.7" fill="#0055FE"/>
<rect y="606.667" width="219.124" height="222.548" fill="white"/>
<rect x="246.514" y="606.667" width="219.124" height="222.548" fill="#0055FE"/>
<rect x="496.453" y="606.667" width="222.548" height="222.548" fill="white"/>
<rect y="849.757" width="219.124" height="219.124" fill="white"/>
<rect x="246.514" y="849.757" width="219.124" height="219.124" fill="white"/>
<rect x="496.453" y="849.757" width="222.548" height="219.124" fill="#0055FE"/>
<path d="M902.238 355.133H1114.15C1212.46 355.133 1283.42 369.456 1327.04 398.102C1370.99 426.747 1392.96 471.995 1392.96 533.844C1392.96 575.51 1382.22 610.178 1360.73 637.848C1339.25 665.517 1308.33 682.932 1267.96 690.094V694.977C1318.09 704.417 1354.88 723.134 1378.31 751.129C1402.08 778.798 1413.96 816.396 1413.96 863.922C1413.96 928.049 1391.5 978.342 1346.57 1014.8C1301.98 1050.93 1239.8 1069 1160.05 1069H902.238V355.133ZM1018.94 650.055H1131.24C1180.07 650.055 1215.71 642.405 1238.18 627.105C1260.64 611.48 1271.87 585.113 1271.87 548.004C1271.87 514.475 1259.66 490.224 1235.25 475.25C1211.16 460.276 1172.75 452.789 1120.01 452.789H1018.94V650.055ZM1018.94 744.781V970.855H1142.96C1191.79 970.855 1228.57 961.578 1253.31 943.023C1278.38 924.143 1290.91 894.521 1290.91 854.156C1290.91 817.047 1278.21 789.54 1252.82 771.637C1227.43 753.733 1188.86 744.781 1137.1 744.781H1018.94ZM1931.05 1069L1914.93 998.199H1909.07C1893.12 1023.26 1870.34 1042.96 1840.71 1057.28C1811.42 1071.6 1777.89 1078.77 1740.13 1078.77C1674.7 1078.77 1625.87 1062.49 1593.64 1029.94C1561.42 997.385 1545.3 948.069 1545.3 881.988V528.961H1661.03V861.969C1661.03 903.31 1669.49 934.397 1686.42 955.23C1703.35 975.738 1729.88 985.992 1766.01 985.992C1814.18 985.992 1849.5 971.669 1871.96 943.023C1894.75 914.052 1906.14 865.712 1906.14 798.004V528.961H2021.38V1069H1931.05ZM2402.73 1078.77C2321.02 1078.77 2258.85 1055 2216.2 1007.48C2173.89 959.625 2152.73 891.103 2152.73 801.91C2152.73 711.09 2174.86 641.266 2219.13 592.438C2263.73 543.609 2328.02 519.195 2412 519.195C2468.97 519.195 2520.24 529.775 2565.81 550.934L2531.14 643.219C2482.64 624.339 2442.6 614.898 2411.03 614.898C2317.6 614.898 2270.89 676.91 2270.89 800.934C2270.89 861.48 2282.45 907.053 2305.56 937.652C2329 967.926 2363.18 983.062 2408.1 983.062C2459.2 983.062 2507.54 970.367 2553.12 944.977V1045.07C2532.61 1057.12 2510.64 1065.74 2487.2 1070.95C2464.09 1076.16 2435.93 1078.77 2402.73 1078.77ZM2790.91 783.844L2855.85 702.789L3018.94 528.961H3151.26L2933.98 760.895L3164.93 1069H3030.17L2856.83 832.184L2793.84 883.941V1069H2680.07V309.234H2793.84V679.84L2787.98 783.844H2790.91ZM3488.18 1078.77C3404.19 1078.77 3338.44 1054.35 3290.91 1005.52C3243.71 956.37 3220.11 888.824 3220.11 802.887C3220.11 714.671 3242.08 645.335 3286.03 594.879C3329.97 544.423 3390.36 519.195 3467.18 519.195C3538.47 519.195 3594.78 540.842 3636.12 584.137C3677.47 627.431 3698.14 687.001 3698.14 762.848V824.859H3338.27C3339.9 877.268 3354.06 917.633 3380.75 945.953C3407.45 973.948 3445.04 987.945 3493.55 987.945C3525.45 987.945 3555.07 985.016 3582.41 979.156C3610.08 972.971 3639.71 962.88 3671.28 948.883V1042.14C3643.29 1055.49 3614.97 1064.93 3586.32 1070.46C3557.67 1076 3524.96 1078.77 3488.18 1078.77ZM3467.18 606.109C3430.72 606.109 3401.42 617.665 3379.29 640.777C3357.48 663.889 3344.46 697.581 3340.23 741.852H3585.34C3584.69 697.255 3573.95 663.564 3553.12 640.777C3532.28 617.665 3503.64 606.109 3467.18 606.109ZM4029.68 985.992C4057.67 985.992 4085.67 981.598 4113.66 972.809V1059.23C4100.97 1064.77 4084.53 1069.33 4064.35 1072.91C4044.49 1076.81 4023.82 1078.77 4002.34 1078.77C3893.61 1078.77 3839.25 1021.47 3839.25 906.891V615.875H3765.52V565.094L3844.62 523.102L3883.68 408.844H3954.48V528.961H4108.29V615.875H3954.48V904.938C3954.48 932.607 3961.32 953.115 3974.99 966.461C3988.99 979.482 4007.22 985.992 4029.68 985.992ZM4494.04 355.133H4705.95C4804.26 355.133 4875.22 369.456 4918.84 398.102C4962.79 426.747 4984.76 471.995 4984.76 533.844C4984.76 575.51 4974.02 610.178 4952.53 637.848C4931.05 665.517 4900.12 682.932 4859.76 690.094V694.977C4909.89 704.417 4946.67 723.134 4970.11 751.129C4993.87 778.798 5005.75 816.396 5005.75 863.922C5005.75 928.049 4983.29 978.342 4938.37 1014.8C4893.77 1050.93 4831.6 1069 4751.85 1069H4494.04V355.133ZM4610.73 650.055H4723.04C4771.87 650.055 4807.51 642.405 4829.97 627.105C4852.43 611.48 4863.66 585.113 4863.66 548.004C4863.66 514.475 4851.46 490.224 4827.04 475.25C4802.95 460.276 4764.54 452.789 4711.81 452.789H4610.73V650.055ZM4610.73 744.781V970.855H4734.76C4783.59 970.855 4820.37 961.578 4845.11 943.023C4870.17 924.143 4882.71 894.521 4882.71 854.156C4882.71 817.047 4870.01 789.54 4844.62 771.637C4819.23 753.733 4780.66 744.781 4728.9 744.781H4610.73ZM5256.73 1069H5141.98V528.961H5256.73V1069ZM5135.15 385.895C5135.15 365.387 5140.68 349.599 5151.75 338.531C5163.14 327.464 5179.26 321.93 5200.09 321.93C5220.27 321.93 5235.9 327.464 5246.96 338.531C5258.36 349.599 5264.05 365.387 5264.05 385.895C5264.05 405.426 5258.36 420.888 5246.96 432.281C5235.9 443.349 5220.27 448.883 5200.09 448.883C5179.26 448.883 5163.14 443.349 5151.75 432.281C5140.68 420.888 5135.15 405.426 5135.15 385.895ZM5896.38 1069H5781.14V736.969C5781.14 695.302 5772.68 664.215 5755.75 643.707C5739.15 623.199 5712.62 612.945 5676.16 612.945C5627.66 612.945 5592.18 627.268 5569.72 655.914C5547.26 684.56 5536.03 732.574 5536.03 799.957V1069H5421.28V528.961H5511.12L5527.24 599.762H5533.1C5549.37 574.046 5572.49 554.189 5602.43 540.191C5632.38 526.194 5665.58 519.195 5702.04 519.195C5831.6 519.195 5896.38 585.113 5896.38 716.949V1069ZM6512.1 528.961V591.949L6419.82 609.039C6428.28 620.432 6435.28 634.43 6440.81 651.031C6446.35 667.633 6449.11 685.211 6449.11 703.766C6449.11 759.43 6429.91 803.212 6391.5 835.113C6353.08 867.014 6300.19 882.965 6232.8 882.965C6215.55 882.965 6199.93 881.663 6185.93 879.059C6161.19 894.358 6148.82 912.262 6148.82 932.77C6148.82 945.139 6154.52 954.417 6165.91 960.602C6177.63 966.786 6198.95 969.879 6229.88 969.879H6324.11C6383.68 969.879 6428.93 982.574 6459.86 1007.96C6490.78 1033.36 6506.24 1069.98 6506.24 1117.83C6506.24 1179.03 6481.01 1226.23 6430.56 1259.43C6380.1 1292.63 6307.19 1309.23 6211.81 1309.23C6138.24 1309.23 6082.09 1296.21 6043.35 1270.17C6004.61 1244.13 5985.25 1207.02 5985.25 1158.84C5985.25 1125.64 5995.66 1097.65 6016.5 1074.86C6037.65 1052.4 6067.11 1036.77 6104.88 1027.98C6089.58 1021.47 6076.88 1011.06 6066.79 996.734C6057.02 982.086 6052.14 966.786 6052.14 950.836C6052.14 930.654 6057.84 913.564 6069.23 899.566C6080.62 885.569 6097.55 871.734 6120.01 858.062C6092.02 846.018 6069.23 826.487 6051.65 799.469C6034.4 772.125 6025.77 740.224 6025.77 703.766C6025.77 645.172 6044.17 599.762 6080.95 567.535C6118.06 535.309 6170.79 519.195 6239.15 519.195C6254.45 519.195 6270.4 520.335 6287 522.613C6303.93 524.566 6316.63 526.682 6325.09 528.961H6512.1ZM6087.79 1152.98C6087.79 1177.72 6098.85 1196.77 6120.99 1210.11C6143.45 1223.46 6174.86 1230.13 6215.23 1230.13C6277.73 1230.13 6324.28 1221.18 6354.88 1203.28C6385.47 1185.37 6400.77 1161.61 6400.77 1131.99C6400.77 1108.55 6392.31 1091.79 6375.38 1081.7C6358.78 1071.93 6327.69 1067.05 6282.12 1067.05H6195.21C6162.33 1067.05 6136.12 1074.7 6116.59 1090C6097.39 1105.62 6087.79 1126.62 6087.79 1152.98ZM6137.1 703.766C6137.1 737.62 6145.73 763.661 6162.98 781.891C6180.56 800.12 6205.62 809.234 6238.18 809.234C6304.58 809.234 6337.79 773.753 6337.79 702.789C6337.79 667.633 6329.48 640.615 6312.88 621.734C6296.61 602.529 6271.7 592.926 6238.18 592.926C6204.97 592.926 6179.74 602.366 6162.49 621.246C6145.57 640.126 6137.1 667.633 6137.1 703.766ZM7091.69 798.004C7091.69 886.22 7069.07 955.068 7023.82 1004.55C6978.57 1054.03 6915.58 1078.77 6834.86 1078.77C6784.4 1078.77 6739.8 1067.37 6701.07 1044.59C6662.33 1021.8 6632.54 989.085 6611.71 946.441C6590.88 903.798 6580.46 854.319 6580.46 798.004C6580.46 710.439 6602.92 642.079 6647.84 592.926C6692.77 543.772 6756.08 519.195 6837.79 519.195C6915.91 519.195 6977.76 544.423 7023.33 594.879C7068.9 645.009 7091.69 712.717 7091.69 798.004ZM6698.62 798.004C6698.62 922.678 6744.69 985.016 6836.81 985.016C6927.95 985.016 6973.53 922.678 6973.53 798.004C6973.53 674.632 6927.63 612.945 6835.83 612.945C6787.65 612.945 6752.66 628.896 6730.85 660.797C6709.37 692.698 6698.62 738.434 6698.62 798.004Z" fill="#0055FE"/>
</svg>
